# xmcd CD database file
#
# Track frame offsets:
#	150
#	38405
#	83957
#	125979
#	143025
#	209185
#	240477
#
# Disc length: 3537 seconds
#
# Revision: 0
# Processed by: cddbd v1.5.2PL0 Copyright (c) Steve Scherf et al.
# Submitted via: CDex 1.51
#
DISCID=630dcf07
DTITLE=Lennart Åberg with Peter Erskine - Free Sprit
DYEAR=2006
DGENRE=Jazz
TTITLE0=Arthur
TTITLE1=Rain
TTITLE2=Amarone
TTITLE3=Kashmir
TTITLE4=Tantra - Mali doussn' gouni - Desireless
TTITLE5=In memoriam
TTITLE6=Folkvisa
EXTD=YEAR: 2006
EXTT0=
EXTT1=
EXTT2=
EXTT3=
EXTT4=
EXTT5=
EXTT6=
PLAYORDER=
